<svg xmlns="http://www.w3.org/2000/svg"
version="1.1" baseProfile="full"
width="0" height="29" viewBox="0 0 0 29">
<rect x="4" y="4" width="1" height="1" fill="black"/>
<rect x="5" y="4" width="1" height="1" fill="black"/>
<rect x="6" y="4" width="1" height="1" fill="black"/>
<rect x="7" y="4" width="1" height="1" fill="black"/>
<rect x="8" y="4" width="1" height="1" fill="black"/>
<rect x="9" y="4" width="1" height="1" fill="black"/>
<rect x="10" y="4" width="1" height="1" fill="black"/>
<rect x="13" y="4" width="1" height="1" fill="black"/>
<rect x="15" y="4" width="1" height="1" fill="black"/>
<rect x="16" y="4" width="1" height="1" fill="black"/>
<rect x="18" y="4" width="1" height="1" fill="black"/>
<rect x="19" y="4" width="1" height="1" fill="black"/>
<rect x="20" y="4" width="1" height="1" fill="black"/>
<rect x="21" y="4" width="1" height="1" fill="black"/>
<rect x="22" y="4" width="1" height="1" fill="black"/>
<rect x="23" y="4" width="1" height="1" fill="black"/>
<rect x="24" y="4" width="1" height="1" fill="black"/>
<rect x="4" y="5" width="1" height="1" fill="black"/>
<rect x="10" y="5" width="1" height="1" fill="black"/>
<rect x="13" y="5" width="1" height="1" fill="black"/>
<rect x="14" y="5" width="1" height="1" fill="black"/>
<rect x="15" y="5" width="1" height="1" fill="black"/>
<rect x="16" y="5" width="1" height="1" fill="black"/>
<rect x="18" y="5" width="1" height="1" fill="black"/>
<rect x="24" y="5" width="1" height="1" fill="black"/>
<rect x="4" y="6" width="1" height="1" fill="black"/>
<rect x="6" y="6" width="1" height="1" fill="black"/>
<rect x="7" y="6" width="1" height="1" fill="black"/>
<rect x="8" y="6" width="1" height="1" fill="black"/>
<rect x="10" y="6" width="1" height="1" fill="black"/>
<rect x="12" y="6" width="1" height="1" fill="black"/>
<rect x="14" y="6" width="1" height="1" fill="black"/>
<rect x="16" y="6" width="1" height="1" fill="black"/>
<rect x="18" y="6" width="1" height="1" fill="black"/>
<rect x="20" y="6" width="1" height="1" fill="black"/>
<rect x="21" y="6" width="1" height="1" fill="black"/>
<rect x="22" y="6" width="1" height="1" fill="black"/>
<rect x="24" y="6" width="1" height="1" fill="black"/>
<rect x="4" y="7" width="1" height="1" fill="black"/>
<rect x="6" y="7" width="1" height="1" fill="black"/>
<rect x="7" y="7" width="1" height="1" fill="black"/>
<rect x="8" y="7" width="1" height="1" fill="black"/>
<rect x="10" y="7" width="1" height="1" fill="black"/>
<rect x="12" y="7" width="1" height="1" fill="black"/>
<rect x="13" y="7" width="1" height="1" fill="black"/>
<rect x="14" y="7" width="1" height="1" fill="black"/>
<rect x="16" y="7" width="1" height="1" fill="black"/>
<rect x="18" y="7" width="1" height="1" fill="black"/>
<rect x="20" y="7" width="1" height="1" fill="black"/>
<rect x="21" y="7" width="1" height="1" fill="black"/>
<rect x="22" y="7" width="1" height="1" fill="black"/>
<rect x="24" y="7" width="1" height="1" fill="black"/>
<rect x="4" y="8" width="1" height="1" fill="black"/>
<rect x="6" y="8" width="1" height="1" fill="black"/>
<rect x="7" y="8" width="1" height="1" fill="black"/>
<rect x="8" y="8" width="1" height="1" fill="black"/>
<rect x="10" y="8" width="1" height="1" fill="black"/>
<rect x="12" y="8" width="1" height="1" fill="black"/>
<rect x="14" y="8" width="1" height="1" fill="black"/>
<rect x="15" y="8" width="1" height="1" fill="black"/>
<rect x="16" y="8" width="1" height="1" fill="black"/>
<rect x="18" y="8" width="1" height="1" fill="black"/>
<rect x="20" y="8" width="1" height="1" fill="black"/>
<rect x="21" y="8" width="1" height="1" fill="black"/>
<rect x="22" y="8" width="1" height="1" fill="black"/>
<rect x="24" y="8" width="1" height="1" fill="black"/>
<rect x="4" y="9" width="1" height="1" fill="black"/>
<rect x="10" y="9" width="1" height="1" fill="black"/>
<rect x="12" y="9" width="1" height="1" fill="black"/>
<rect x="13" y="9" width="1" height="1" fill="black"/>
<rect x="16" y="9" width="1" height="1" fill="black"/>
<rect x="18" y="9" width="1" height="1" fill="black"/>
<rect x="24" y="9" width="1" height="1" fill="black"/>
<rect x="4" y="10" width="1" height="1" fill="black"/>
<rect x="5" y="10" width="1" height="1" fill="black"/>
<rect x="6" y="10" width="1" height="1" fill="black"/>
<rect x="7" y="10" width="1" height="1" fill="black"/>
<rect x="8" y="10" width="1" height="1" fill="black"/>
<rect x="9" y="10" width="1" height="1" fill="black"/>
<rect x="10" y="10" width="1" height="1" fill="black"/>
<rect x="12" y="10" width="1" height="1" fill="black"/>
<rect x="14" y="10" width="1" height="1" fill="black"/>
<rect x="16" y="10" width="1" height="1" fill="black"/>
<rect x="18" y="10" width="1" height="1" fill="black"/>
<rect x="19" y="10" width="1" height="1" fill="black"/>
<rect x="20" y="10" width="1" height="1" fill="black"/>
<rect x="21" y="10" width="1" height="1" fill="black"/>
<rect x="22" y="10" width="1" height="1" fill="black"/>
<rect x="23" y="10" width="1" height="1" fill="black"/>
<rect x="24" y="10" width="1" height="1" fill="black"/>
<rect x="12" y="11" width="1" height="1" fill="black"/>
<rect x="13" y="11" width="1" height="1" fill="black"/>
<rect x="14" y="11" width="1" height="1" fill="black"/>
<rect x="15" y="11" width="1" height="1" fill="black"/>
<rect x="16" y="11" width="1" height="1" fill="black"/>
<rect x="4" y="12" width="1" height="1" fill="black"/>
<rect x="6" y="12" width="1" height="1" fill="black"/>
<rect x="7" y="12" width="1" height="1" fill="black"/>
<rect x="8" y="12" width="1" height="1" fill="black"/>
<rect x="9" y="12" width="1" height="1" fill="black"/>
<rect x="10" y="12" width="1" height="1" fill="black"/>
<rect x="14" y="12" width="1" height="1" fill="black"/>
<rect x="16" y="12" width="1" height="1" fill="black"/>
<rect x="18" y="12" width="1" height="1" fill="black"/>
<rect x="19" y="12" width="1" height="1" fill="black"/>
<rect x="20" y="12" width="1" height="1" fill="black"/>
<rect x="21" y="12" width="1" height="1" fill="black"/>
<rect x="22" y="12" width="1" height="1" fill="black"/>
<rect x="6" y="13" width="1" height="1" fill="black"/>
<rect x="7" y="13" width="1" height="1" fill="black"/>
<rect x="8" y="13" width="1" height="1" fill="black"/>
<rect x="9" y="13" width="1" height="1" fill="black"/>
<rect x="11" y="13" width="1" height="1" fill="black"/>
<rect x="13" y="13" width="1" height="1" fill="black"/>
<rect x="14" y="13" width="1" height="1" fill="black"/>
<rect x="16" y="13" width="1" height="1" fill="black"/>
<rect x="19" y="13" width="1" height="1" fill="black"/>
<rect x="21" y="13" width="1" height="1" fill="black"/>
<rect x="24" y="13" width="1" height="1" fill="black"/>
<rect x="4" y="14" width="1" height="1" fill="black"/>
<rect x="5" y="14" width="1" height="1" fill="black"/>
<rect x="6" y="14" width="1" height="1" fill="black"/>
<rect x="9" y="14" width="1" height="1" fill="black"/>
<rect x="10" y="14" width="1" height="1" fill="black"/>
<rect x="11" y="14" width="1" height="1" fill="black"/>
<rect x="12" y="14" width="1" height="1" fill="black"/>
<rect x="13" y="14" width="1" height="1" fill="black"/>
<rect x="15" y="14" width="1" height="1" fill="black"/>
<rect x="17" y="14" width="1" height="1" fill="black"/>
<rect x="20" y="14" width="1" height="1" fill="black"/>
<rect x="21" y="14" width="1" height="1" fill="black"/>
<rect x="23" y="14" width="1" height="1" fill="black"/>
<rect x="8" y="15" width="1" height="1" fill="black"/>
<rect x="11" y="15" width="1" height="1" fill="black"/>
<rect x="12" y="15" width="1" height="1" fill="black"/>
<rect x="14" y="15" width="1" height="1" fill="black"/>
<rect x="19" y="15" width="1" height="1" fill="black"/>
<rect x="20" y="15" width="1" height="1" fill="black"/>
<rect x="21" y="15" width="1" height="1" fill="black"/>
<rect x="22" y="15" width="1" height="1" fill="black"/>
<rect x="24" y="15" width="1" height="1" fill="black"/>
<rect x="4" y="16" width="1" height="1" fill="black"/>
<rect x="7" y="16" width="1" height="1" fill="black"/>
<rect x="8" y="16" width="1" height="1" fill="black"/>
<rect x="9" y="16" width="1" height="1" fill="black"/>
<rect x="10" y="16" width="1" height="1" fill="black"/>
<rect x="11" y="16" width="1" height="1" fill="black"/>
<rect x="12" y="16" width="1" height="1" fill="black"/>
<rect x="14" y="16" width="1" height="1" fill="black"/>
<rect x="15" y="16" width="1" height="1" fill="black"/>
<rect x="17" y="16" width="1" height="1" fill="black"/>
<rect x="20" y="16" width="1" height="1" fill="black"/>
<rect x="23" y="16" width="1" height="1" fill="black"/>
<rect x="12" y="17" width="1" height="1" fill="black"/>
<rect x="15" y="17" width="1" height="1" fill="black"/>
<rect x="16" y="17" width="1" height="1" fill="black"/>
<rect x="17" y="17" width="1" height="1" fill="black"/>
<rect x="18" y="17" width="1" height="1" fill="black"/>
<rect x="19" y="17" width="1" height="1" fill="black"/>
<rect x="21" y="17" width="1" height="1" fill="black"/>
<rect x="24" y="17" width="1" height="1" fill="black"/>
<rect x="4" y="18" width="1" height="1" fill="black"/>
<rect x="5" y="18" width="1" height="1" fill="black"/>
<rect x="6" y="18" width="1" height="1" fill="black"/>
<rect x="7" y="18" width="1" height="1" fill="black"/>
<rect x="8" y="18" width="1" height="1" fill="black"/>
<rect x="9" y="18" width="1" height="1" fill="black"/>
<rect x="10" y="18" width="1" height="1" fill="black"/>
<rect x="16" y="18" width="1" height="1" fill="black"/>
<rect x="18" y="18" width="1" height="1" fill="black"/>
<rect x="19" y="18" width="1" height="1" fill="black"/>
<rect x="21" y="18" width="1" height="1" fill="black"/>
<rect x="23" y="18" width="1" height="1" fill="black"/>
<rect x="4" y="19" width="1" height="1" fill="black"/>
<rect x="10" y="19" width="1" height="1" fill="black"/>
<rect x="12" y="19" width="1" height="1" fill="black"/>
<rect x="13" y="19" width="1" height="1" fill="black"/>
<rect x="14" y="19" width="1" height="1" fill="black"/>
<rect x="15" y="19" width="1" height="1" fill="black"/>
<rect x="16" y="19" width="1" height="1" fill="black"/>
<rect x="17" y="19" width="1" height="1" fill="black"/>
<rect x="18" y="19" width="1" height="1" fill="black"/>
<rect x="19" y="19" width="1" height="1" fill="black"/>
<rect x="20" y="19" width="1" height="1" fill="black"/>
<rect x="21" y="19" width="1" height="1" fill="black"/>
<rect x="22" y="19" width="1" height="1" fill="black"/>
<rect x="24" y="19" width="1" height="1" fill="black"/>
<rect x="4" y="20" width="1" height="1" fill="black"/>
<rect x="6" y="20" width="1" height="1" fill="black"/>
<rect x="7" y="20" width="1" height="1" fill="black"/>
<rect x="8" y="20" width="1" height="1" fill="black"/>
<rect x="10" y="20" width="1" height="1" fill="black"/>
<rect x="12" y="20" width="1" height="1" fill="black"/>
<rect x="16" y="20" width="1" height="1" fill="black"/>
<rect x="19" y="20" width="1" height="1" fill="black"/>
<rect x="23" y="20" width="1" height="1" fill="black"/>
<rect x="4" y="21" width="1" height="1" fill="black"/>
<rect x="6" y="21" width="1" height="1" fill="black"/>
<rect x="7" y="21" width="1" height="1" fill="black"/>
<rect x="8" y="21" width="1" height="1" fill="black"/>
<rect x="10" y="21" width="1" height="1" fill="black"/>
<rect x="12" y="21" width="1" height="1" fill="black"/>
<rect x="13" y="21" width="1" height="1" fill="black"/>
<rect x="16" y="21" width="1" height="1" fill="black"/>
<rect x="20" y="21" width="1" height="1" fill="black"/>
<rect x="22" y="21" width="1" height="1" fill="black"/>
<rect x="4" y="22" width="1" height="1" fill="black"/>
<rect x="6" y="22" width="1" height="1" fill="black"/>
<rect x="7" y="22" width="1" height="1" fill="black"/>
<rect x="8" y="22" width="1" height="1" fill="black"/>
<rect x="10" y="22" width="1" height="1" fill="black"/>
<rect x="12" y="22" width="1" height="1" fill="black"/>
<rect x="14" y="22" width="1" height="1" fill="black"/>
<rect x="15" y="22" width="1" height="1" fill="black"/>
<rect x="17" y="22" width="1" height="1" fill="black"/>
<rect x="4" y="23" width="1" height="1" fill="black"/>
<rect x="10" y="23" width="1" height="1" fill="black"/>
<rect x="21" y="23" width="1" height="1" fill="black"/>
<rect x="22" y="23" width="1" height="1" fill="black"/>
<rect x="4" y="24" width="1" height="1" fill="black"/>
<rect x="5" y="24" width="1" height="1" fill="black"/>
<rect x="6" y="24" width="1" height="1" fill="black"/>
<rect x="7" y="24" width="1" height="1" fill="black"/>
<rect x="8" y="24" width="1" height="1" fill="black"/>
<rect x="9" y="24" width="1" height="1" fill="black"/>
<rect x="10" y="24" width="1" height="1" fill="black"/>
<rect x="12" y="24" width="1" height="1" fill="black"/>
<rect x="13" y="24" width="1" height="1" fill="black"/>
<rect x="15" y="24" width="1" height="1" fill="black"/>
<rect x="17" y="24" width="1" height="1" fill="black"/>
<rect x="19" y="24" width="1" height="1" fill="black"/>
<rect x="23" y="24" width="1" height="1" fill="black"/>

</svg>
